<svg version="1.0" xmlns="http://www.w3.org/2000/svg"
 width="1134.000000pt" height="1134.000000pt" viewBox="0 0 1134.000000 1134.000000"
 preserveAspectRatio="xMidYMid meet">

<g transform="translate(0.000000,1134.000000) scale(0.100000,-0.100000)"
fill="#000000" stroke="none">
<path d="M6498 9768 c-6 -76 -41 -142 -117 -218 -139 -139 -381 -262 -709
-361 -349 -104 -467 -153 -609 -251 -238 -164 -395 -424 -410 -681 l-6 -87
-99 -56 c-173 -97 -287 -192 -373 -313 l-37 -51 -628 0 c-672 0 -670 0 -715
-50 -18 -20 -20 -48 -31 -353 -7 -183 -17 -386 -23 -452 -6 -66 -20 -248 -31
-405 -12 -157 -45 -598 -76 -980 -187 -2381 -207 -2684 -184 -2860 42 -333
207 -503 549 -566 130 -24 711 -33 763 -11 77 32 85 83 92 632 6 442 20 1077
36 1675 6 206 17 652 25 990 17 743 25 917 36 875 35 -122 156 -689 303 -1423
273 -1357 352 -1719 465 -2133 69 -255 97 -314 190 -402 166 -156 390 -219
776 -220 234 0 349 25 418 90 65 63 430 1092 788 2223 218 690 612 1901 616
1896 15 -15 -111 -1465 -202 -2321 -97 -916 -120 -1206 -105 -1330 24 -192
117 -350 260 -440 62 -39 184 -82 288 -101 113 -21 705 -32 770 -15 51 14 69
40 82 117 13 76 119 1503 175 2344 14 212 41 615 60 895 57 842 68 1083 69
1445 1 327 0 350 -22 434 -30 121 -72 194 -151 268 -102 96 -228 145 -426 168
-121 13 -1487 13 -1537 0 -39 -11 -92 -64 -109 -109 -6 -14 -100 -370 -209
-791 -203 -785 -241 -926 -480 -1805 -163 -597 -360 -1344 -360 -1362 0 -7 -4
-13 -9 -13 -4 0 -13 28 -19 63 -92 532 -159 953 -242 1532 -144 999 -188 1260
-265 1565 -86 342 -192 551 -357 704 -85 79 -212 152 -310 178 -27 7 -48 15
-48 19 0 3 37 42 83 85 191 184 486 341 932 494 330 113 485 195 628 329 108
102 197 238 197 301 0 17 -5 39 -12 50 -10 15 -9 23 6 39 28 31 50 26 69 -14
35 -74 18 -146 -64 -267 -147 -217 -366 -362 -749 -493 -232 -80 -358 -129
-497 -195 -99 -47 -277 -149 -271 -155 7 -7 210 -55 333 -79 468 -90 865 -71
1132 54 293 137 465 386 519 751 22 153 15 470 -15 645 -33 195 -118 524 -140
547 -5 5 -10 -16 -13 -45z"/>
</g>
</svg>
