<?xml version="1.0" standalone="no"?>
<!DOCTYPE svg PUBLIC "-//W3C//DTD SVG 20010904//EN"
 "http://www.w3.org/TR/2001/REC-SVG-20010904/DTD/svg10.dtd">
<svg version="1.0" xmlns="http://www.w3.org/2000/svg"
 width="300.000000pt" height="79.000000pt" viewBox="0 0 300.000000 79.000000"
 preserveAspectRatio="xMidYMid meet">
<metadata>
Created by potrace 1.10, written by Peter Selinger 2001-2011
</metadata>
<g transform="translate(0.000000,79.000000) scale(0.100000,-0.100000)"
fill="#46ce3c" stroke="none">
<path d="M2284 780 c-32 -13 -64 -59 -64 -92 0 -66 65 -119 126 -104 88 22
100 152 19 191 -37 17 -50 18 -81 5z"/>
<path d="M42 763 c-7 -3 -19 -18 -27 -33 -12 -24 -15 -86 -15 -344 0 -213 4
-323 11 -340 16 -35 61 -52 98 -36 16 6 33 19 38 28 4 10 10 103 13 207 l5
190 65 -125 c75 -145 95 -170 143 -170 52 0 77 27 147 164 36 69 68 126 73
126 4 0 7 -87 7 -194 l0 -195 26 -20 c35 -28 69 -26 99 4 l25 24 0 334 c0 323
-1 335 -21 361 -16 21 -29 26 -64 26 -26 0 -51 -7 -63 -17 -11 -10 -64 -103
-118 -208 -53 -104 -100 -193 -104 -198 -3 -4 -50 79 -104 185 -54 106 -108
203 -119 216 -15 16 -31 22 -61 21 -23 0 -47 -3 -54 -6z"/>
<path d="M1563 746 l-28 -24 0 -337 0 -337 28 -24 c35 -30 59 -30 94 0 l28 24
3 314 c3 339 -1 377 -43 396 -37 17 -50 15 -82 -12z"/>
<path d="M1031 524 c-165 -83 -189 -349 -42 -461 111 -85 298 -79 370 13 27
35 27 59 -4 89 -30 31 -58 32 -97 3 -41 -28 -115 -35 -156 -14 -26 13 -62 60
-62 80 0 2 72 6 161 8 155 3 161 4 180 27 58 72 -27 236 -140 270 -68 20 -151
14 -210 -15z m183 -125 c14 -11 26 -29 26 -40 0 -17 -8 -19 -95 -19 -61 0 -95
4 -95 11 0 6 13 24 29 40 37 36 94 40 135 8z"/>
<path d="M1984 531 c-111 -51 -170 -151 -161 -271 12 -180 177 -296 349 -246
108 31 177 107 199 219 23 111 -43 242 -147 292 -58 28 -186 32 -240 6z m188
-141 c36 -28 51 -72 46 -131 -17 -168 -248 -149 -248 21 0 41 33 104 62 117
39 19 112 15 140 -7z"/>
<path d="M2730 538 c-19 -5 -43 -17 -52 -25 -15 -14 -20 -13 -44 6 -35 28 -75
27 -102 -2 -21 -22 -22 -31 -22 -241 0 -129 4 -225 10 -236 27 -50 100 -49
125 0 11 21 15 64 15 162 0 156 13 192 74 203 47 9 74 -1 97 -38 16 -28 19
-51 19 -175 0 -138 1 -144 25 -167 26 -27 41 -30 78 -16 42 16 49 55 45 228
-3 139 -6 163 -26 200 -26 50 -72 87 -127 102 -47 13 -68 13 -115 -1z"/>
</g>
</svg>
