<?xml version="1.0" standalone="no"?>
<!DOCTYPE svg PUBLIC "-//W3C//DTD SVG 20010904//EN"
 "http://www.w3.org/TR/2001/REC-SVG-20010904/DTD/svg10.dtd">
<svg version="1.0" xmlns="http://www.w3.org/2000/svg"
 width="300.000000pt" height="67.000000pt" viewBox="0 0 300.000000 67.000000"
 preserveAspectRatio="xMidYMid meet">
<metadata>
Created by potrace 1.10, written by Peter Selinger 2001-2011
</metadata>
<g transform="translate(0.000000,67.000000) scale(0.100000,-0.100000)"
fill="#000000" stroke="none">
<path d="M283 660 c-185 -9 -214 -19 -248 -85 -18 -36 -20 -60 -20 -240 0
-227 9 -261 75 -300 33 -19 52 -20 390 -20 393 0 413 3 444 64 47 90 47 422 0
512 -25 49 -67 60 -268 70 -100 4 -188 8 -196 7 -8 -1 -88 -4 -177 -8z m231
-253 c59 -35 108 -67 108 -72 0 -9 -209 -134 -224 -135 -5 0 -8 61 -8 135 0
74 3 135 8 135 4 0 56 -29 116 -63z"/>
<path d="M2440 345 l0 -295 36 0 c27 0 37 5 41 20 5 20 5 20 30 0 32 -25 84
-26 111 -3 32 28 42 78 42 200 0 113 -14 177 -43 195 -23 15 -74 8 -101 -13
l-26 -20 0 105 0 106 -45 0 -45 0 0 -295z m151 48 c10 -11 14 -49 14 -134 0
-100 -3 -121 -18 -136 -13 -14 -21 -15 -35 -7 -14 9 -17 31 -20 140 -2 112 0
130 15 141 22 17 28 16 44 -4z"/>
<path d="M1060 610 c0 -6 21 -83 47 -173 37 -131 47 -183 52 -272 l6 -110 43
-3 42 -3 0 87 c0 83 23 183 106 467 5 14 -2 17 -40 17 -39 0 -46 -3 -51 -22
-3 -13 -17 -75 -31 -138 -25 -114 -34 -141 -34 -104 0 10 -12 74 -27 141 l-27
123 -43 0 c-24 0 -43 -5 -43 -10z"/>
<path d="M1880 580 l0 -40 45 0 45 0 0 -245 0 -245 45 0 45 0 0 245 0 245 45
0 45 0 0 40 0 40 -135 0 -135 0 0 -40z"/>
<path d="M1399 455 c-42 -23 -59 -80 -59 -201 0 -160 27 -204 127 -204 43 0
58 5 84 28 26 24 32 38 42 105 8 56 8 98 0 154 -10 67 -16 81 -42 105 -25 22
-41 28 -79 28 -26 -1 -59 -7 -73 -15z m89 -57 c13 -13 18 -242 6 -272 -10 -25
-43 -19 -54 10 -6 14 -10 70 -10 124 0 132 19 177 58 138z"/>
<path d="M2333 463 l-43 -4 -2 -166 c-3 -142 -5 -167 -20 -176 -12 -8 -21 -7
-32 2 -13 11 -16 40 -16 177 l0 164 -45 0 -45 0 0 -179 c0 -165 2 -180 21
-205 28 -36 89 -37 124 -2 l25 25 6 -25 c5 -19 12 -24 40 -24 l34 0 0 210 c0
116 -1 209 -2 208 -2 -1 -22 -3 -45 -5z"/>
<path d="M2802 454 c-42 -29 -52 -65 -52 -193 0 -129 6 -157 41 -190 28 -26
122 -30 156 -6 20 14 52 90 42 99 -2 2 -20 6 -39 10 -34 6 -36 4 -45 -26 -8
-26 -15 -33 -35 -33 -26 0 -37 23 -39 83 l-1 32 80 0 80 0 0 68 c0 84 -14 137
-43 157 -28 20 -116 20 -145 -1z m96 -112 l3 -63 -33 3 c-32 3 -33 4 -33 48 1
63 10 82 37 78 21 -3 23 -9 26 -66z"/>
<path d="M1650 284 c0 -215 7 -234 83 -234 27 0 45 7 62 24 l23 24 6 -24 c5
-20 13 -24 41 -24 l35 0 0 205 0 205 -45 0 -45 0 -2 -166 c-3 -141 -6 -168
-19 -177 -9 -6 -24 -7 -33 -4 -14 6 -16 28 -16 177 l0 170 -45 0 -45 0 0 -176z"/>
</g>
</svg>
